# xmcd
#
# Track frame offsets:
#	150
#	17904
#	27169
#	38659
#	57024
#	80110
#	94100
#	103648
#	122575
#	152250
#	164094
#	179501
#	197985
#	208999
#	226555
#	241479
#	258685
#	276415
#	298502
#	311218
#	327889
#
# Disc length: 4726 seconds
#
# Revision: 0
# Processed by: cddbd v1.5.2PL0 Copyright (c) Steve Scherf et al.
# Submitted via: EZCDAudioConverter 7.0.6.1
#
DISCID=2f127415
DTITLE=Fairport Convention - Come All Ye 4/7
DYEAR=1900
DGENRE=
TTITLE0=Fairport Convention - Sweet Little Rock 'n' Roller [Live at the Trouba
TTITLE0=dour, LA, 1970]
TTITLE1=The Bunch - That'll Be The Day
TTITLE2=The Bunch - Think It Over
TTITLE3=Fairport Convention - Maverick Child
TTITLE4=Fairport Convention - Sad Song (As Long As It Is Mine)
TTITLE5=Fairport Convention - Matthew, Mark, Luke And John [David Rea Vocal Ve
TTITLE5=rsion]
TTITLE6=Fairport Convention - Rattle Trap
TTITLE7=Fairport Convention - Sheep In The Meadow
TTITLE8=Fairport Convention - Rosie [David Rea Vocal Version]
TTITLE9=Fairport Convention - Country Judy Jane
TTITLE10=Fairport Convention - Me With You [Manor Studio Version]
TTITLE11=Fairport Convention - My Girl [Manor Studio Version]
TTITLE12=Fairport Convention - To Althea From Prison [Manor Studio Version]
TTITLE13=Fairport Convention - Knights Of The Road
TTITLE14=Fairport Convention - The Plainsman
TTITLE15=Fairport Convention - Matthew, Mark, Luke and John [Live On BBC Old Gre
TTITLE15=y Whistle Test, 4/17/73]
TTITLE16=Fairport Convention - Brilliancy Medley/Cherokee Shuffle [Live On BBC
TTITLE16=Old Grey Whistle Test, 4/17/73]
TTITLE17=Fairport Convention - Polly On The Shore
TTITLE18=Fairport Convention - Fiddlestix (The Devil In The Kitchen) [Without 
TTITLE18=Orchestra]
TTITLE19=Fairport Convention - Possibly Parsons Green [Australian 7" Single Ve
TTITLE19=rsion]
TTITLE20=Fairport Convention - Bring 'Em Down
EXTD=
EXTT0=
EXTT1=
EXTT2=
EXTT3=
EXTT4=
EXTT5=
EXTT6=
EXTT7=
EXTT8=
EXTT9=
EXTT10=
EXTT11=
EXTT12=
EXTT13=
EXTT14=
EXTT15=
EXTT16=
EXTT17=
EXTT18=
EXTT19=
EXTT20=
PLAYORDER=
